<svg xmlns="http://www.w3.org/2000/svg" viewBox="0 0 48 48" fill="none">
    <path fill="white" d="M14.056 5.387C13.632 6.219 13.632 7.308 13.632 9.485V38.515C13.632 40.692 13.632 41.781 14.056 42.613 14.429 43.345 15.024 43.939 15.755 44.312 16.587 44.736 17.676 44.736 19.853 44.736H27.954C27.113 43.913 26.592 42.765 26.592 41.496 26.592 38.991 28.623 36.96 31.128 36.96 32.397 36.96 33.545 37.481 34.368 38.322V9.485C34.368 7.308 34.368 6.219 33.944 5.387 33.571 4.656 32.977 4.061 32.245 3.688 31.413 3.264 30.324 3.264 28.147 3.264H19.853C17.676 3.264 16.587 3.264 15.755 3.688 15.024 4.061 14.429 4.656 14.056 5.387ZM18.168 7.8m-1.944 0a1.944 1.944 0 1 1 3.888 0 1.944 1.944 0 1 1-3.888 0ZM18.168 14.28m-1.944 0a1.944 1.944 0 1 1 3.888 0 1.944 1.944 0 1 1-3.888 0ZM31.128 41.496m-3.24 0a3.24 3.24 0 1 1 6.48 0 3.24 3.24 0 1 1-6.48 0"/>
</svg>