<svg xmlns="http://www.w3.org/2000/svg" viewBox="0 0 33 33" fill="none">
    <path fill="white" d="M10,0L22,0A3,3 0,0 1,25 3L25,29A3,3 0,0 1,22 32L10,32A3,3 0,0 1,7 29L7,3A3,3 0,0 1,10 0z"/>
    <path fill="black" d="M22.707,2.293C23.098,2.683 23.098,3.317 22.707,3.707L19.707,6.707C19.317,7.098 18.683,7.098 18.293,6.707C17.902,6.317 17.902,5.683 18.293,5.293L21.293,2.293C21.683,1.902 22.317,1.902 22.707,2.293ZM16,25C16.552,25 17,25.448 17,26V29C17,29.552 16.552,30 16,30C15.448,30 15,29.552 15,29V26C15,25.448 15.448,25 16,25ZM10.5,5C11.328,5 12,4.328 12,3.5C12,2.672 11.328,2 10.5,2C9.672,2 9,2.672 9,3.5C9,4.328 9.672,5 10.5,5ZM12,7.5C12,8.328 11.328,9 10.5,9C9.672,9 9,8.328 9,7.5C9,6.672 9.672,6 10.5,6C11.328,6 12,6.672 12,7.5ZM14.087,11.381C15,11.002 16.006,10.903 16.976,11.096C17.945,11.289 18.836,11.765 19.535,12.465C19.926,12.855 20.559,12.855 20.95,12.465C21.34,12.074 21.34,11.441 20.95,11.05C19.971,10.071 18.723,9.405 17.366,9.134C16.008,8.864 14.6,9.003 13.321,9.533C12.042,10.063 10.949,10.96 10.18,12.111C9.411,13.262 9,14.616 9,16C9,17.385 9.411,18.738 10.18,19.889C10.949,21.04 12.042,21.937 13.321,22.467C14.6,22.997 16.008,23.136 17.366,22.865C18.723,22.595 19.971,21.929 20.95,20.95C21.34,20.559 21.34,19.926 20.95,19.535C20.559,19.145 19.926,19.145 19.535,19.535C18.836,20.235 17.945,20.711 16.976,20.904C16.006,21.097 15,20.998 14.087,20.619C13.173,20.241 12.392,19.6 11.843,18.778C11.293,17.956 11,16.989 11,16C11,15.011 11.293,14.044 11.843,13.222C12.392,12.4 13.173,11.759 14.087,11.381Z"/>
</svg>