<svg xmlns="http://www.w3.org/2000/svg" viewBox="0 0 33 33" fill="none">
    <path fill="white" d="M10,0L22,0A3,3 0,0 1,25 3L25,29A3,3 0,0 1,22 32L10,32A3,3 0,0 1,7 29L7,3A3,3 0,0 1,10 0z"/>
    <path fill="black" d="M13.366,1.438C13.642,1.916 13.478,2.528 13,2.804C12.318,3.198 11.719,3.722 11.24,4.348C10.76,4.973 10.408,5.686 10.204,6.447C10.061,6.981 9.513,7.297 8.98,7.154C8.446,7.011 8.13,6.463 8.273,5.93C8.545,4.915 9.014,3.963 9.653,3.13C10.293,2.297 11.09,1.597 12,1.072C12.478,0.796 13.09,0.96 13.366,1.438ZM23.5,6C23.5,5.448 23.052,5 22.5,5C21.948,5 21.5,5.448 21.5,6V10C21.5,10.552 21.948,11 22.5,11C23.052,11 23.5,10.552 23.5,10V6ZM15.5,8C15.5,9.105 14.605,10 13.5,10C12.395,10 11.5,9.105 11.5,8C11.5,6.896 12.395,6 13.5,6C14.605,6 15.5,6.896 15.5,8ZM20.5,8C20.5,9.105 19.605,10 18.5,10C17.395,10 16.5,9.105 16.5,8C16.5,6.896 17.395,6 18.5,6C19.605,6 20.5,6.896 20.5,8ZM10.804,11C10.528,10.522 9.916,10.358 9.438,10.634C8.96,10.91 8.796,11.522 9.072,12C9.774,13.216 10.784,14.226 12,14.928C12.478,15.204 13.09,15.041 13.366,14.562C13.642,14.084 13.478,13.472 13,13.196C12.088,12.67 11.33,11.912 10.804,11Z"/>
</svg>