<svg xmlns="http://www.w3.org/2000/svg" viewBox="0 0 33 33" fill="none">
    <path fill="white" d="M10,0L22,0A3,3 0,0 1,25 3L25,29A3,3 0,0 1,22 32L10,32A3,3 0,0 1,7 29L7,3A3,3 0,0 1,10 0z"/>
    <path fill="black" d="M22.707,3.707C23.098,3.317 23.098,2.683 22.707,2.293C22.317,1.902 21.683,1.902 21.293,2.293L18.293,5.293C17.902,5.683 17.902,6.317 18.293,6.707C18.683,7.098 19.317,7.098 19.707,6.707L22.707,3.707ZM17,26C17,25.448 16.552,25 16,25C15.448,25 15,25.448 15,26V29C15,29.552 15.448,30 16,30C16.552,30 17,29.552 17,29V26ZM12,3.5C12,4.328 11.328,5 10.5,5C9.672,5 9,4.328 9,3.5C9,2.672 9.672,2 10.5,2C11.328,2 12,2.672 12,3.5ZM10.5,9C11.328,9 12,8.328 12,7.5C12,6.672 11.328,6 10.5,6C9.672,6 9,6.672 9,7.5C9,8.328 9.672,9 10.5,9ZM10.304,18.134C10.782,17.858 11.394,18.022 11.67,18.5C12.109,19.26 12.74,19.891 13.5,20.33C14.26,20.769 15.122,21 16,21C16.552,21 17,21.448 17,22C17,22.552 16.552,23 16,23C14.771,23 13.564,22.677 12.5,22.062C11.436,21.448 10.552,20.564 9.938,19.5C9.662,19.022 9.826,18.41 10.304,18.134ZM16,9C15.448,9 15,9.448 15,10C15,10.552 15.448,11 16,11C16.878,11 17.74,11.231 18.5,11.67C19.26,12.109 19.891,12.74 20.33,13.5C20.606,13.978 21.218,14.142 21.696,13.866C22.174,13.59 22.338,12.978 22.062,12.5C21.448,11.436 20.564,10.552 19.5,9.938C18.436,9.323 17.229,9 16,9ZM13.866,10.304C14.142,10.782 13.978,11.394 13.5,11.67C12.931,11.998 12.433,12.435 12.033,12.956C11.634,13.477 11.34,14.072 11.17,14.706C11.027,15.239 10.479,15.556 9.946,15.413C9.412,15.27 9.096,14.722 9.239,14.188C9.476,13.3 9.887,12.468 10.446,11.739C11.006,11.009 11.704,10.397 12.5,9.938C12.978,9.662 13.59,9.826 13.866,10.304ZM22.761,17.812C22.904,17.278 22.588,16.73 22.054,16.587C21.521,16.444 20.973,16.761 20.83,17.294C20.486,18.575 19.648,19.667 18.5,20.33C18.022,20.606 17.858,21.218 18.134,21.696C18.41,22.174 19.022,22.338 19.5,22.062C21.108,21.134 22.281,19.605 22.761,17.812Z"/>
</svg>